{
	"asset":{
		"generator":"Khronos glTF Blender I/O v3.6.28",
		"version":"2.0"
	},
	"extensionsUsed":[
		"KHR_texture_transform"
	],
	"extensionsRequired":[
		"KHR_texture_transform"
	],
	"scene":0,
	"scenes":[
		{
			"name":"Scene",
			"nodes":[
				0
			]
		}
	],
	"nodes":[
		{
			"mesh":0,
			"name":"138.001",
			"rotation":[
				0.70710688829422,
				0,
				0,
				0.7071066498756409
			]
		}
	],
	"materials":[
		{
			"doubleSided":true,
			"name":"wood",
			"normalTexture":{
				"extensions":{
					"KHR_texture_transform":{
						"offset":[
							0,
							-0.5
						],
						"scale":[
							1.5,
							1.5
						]
					}
				},
				"index":0
			},
			"pbrMetallicRoughness":{
				"baseColorTexture":{
					"extensions":{
						"KHR_texture_transform":{
							"offset":[
								0,
								-0.5
							],
							"scale":[
								1.5,
								1.5
							]
						}
					},
					"index":1
				},
				"metallicFactor":0,
				"metallicRoughnessTexture":{
					"extensions":{
						"KHR_texture_transform":{
							"offset":[
								0,
								-0.5
							],
							"scale":[
								1.5,
								1.5
							]
						}
					},
					"index":2
				}
			}
		}
	],
	"meshes":[
		{
			"name":"138.002",
			"primitives":[
				{
					"attributes":{
						"POSITION":0,
						"NORMAL":1,
						"TEXCOORD_0":2
					},
					"indices":3,
					"material":0
				}
			]
		}
	],
	"textures":[
		{
			"sampler":0,
			"source":0
		},
		{
			"sampler":0,
			"source":1
		},
		{
			"sampler":0,
			"source":2
		}
	],
	"images":[
		{
			"bufferView":4,
			"mimeType":"image/jpeg",
			"name":"E:\\zb\\zhichan\\asset\\Pradipta Mondal\\Desktop\\blender\\my  assets\\textures\\normals"
		},
		{
			"bufferView":5,
			"mimeType":"image/jpeg",
			"name":"E:\\zb\\zhichan\\asset\\Pradipta Mondal\\Desktop\\blender\\my  assets\\textures\\diffuse"
		},
		{
			"bufferView":6,
			"mimeType":"image/png",
			"name":"E:\\zb\\zhichan\\asset\\Pradipta Mondal\\Desktop\\blender\\my  assets\\textures\\reflection"
		}
	],
	"accessors":[
		{
			"bufferView":0,
			"componentType":5126,
			"count":25907,
			"max":[
				0.2500090003013611,
				11.65333080291748,
				15.210197448730469
			],
			"min":[
				-0.7500090003013611,
				-11.685349464416504,
				-15.164801597595215
			],
			"type":"VEC3"
		},
		{
			"bufferView":1,
			"componentType":5126,
			"count":25907,
			"type":"VEC3"
		},
		{
			"bufferView":2,
			"componentType":5126,
			"count":25907,
			"type":"VEC2"
		},
		{
			"bufferView":3,
			"componentType":5123,
			"count":49824,
			"type":"SCALAR"
		}
	],
	"bufferViews":[
		{
			"buffer":0,
			"byteLength":310884,
			"byteOffset":0,
			"target":34962
		},
		{
			"buffer":0,
			"byteLength":310884,
			"byteOffset":310884,
			"target":34962
		},
		{
			"buffer":0,
			"byteLength":207256,
			"byteOffset":621768,
			"target":34962
		},
		{
			"buffer":0,
			"byteLength":99648,
			"byteOffset":829024,
			"target":34963
		},
		{
			"buffer":0,
			"byteLength":20150,
			"byteOffset":928672
		},
		{
			"buffer":0,
			"byteLength":52800,
			"byteOffset":948824
		},
		{
			"buffer":0,
			"byteLength":26491,
			"byteOffset":1001624
		}
	],
	"samplers":[
		{
			"magFilter":9729,
			"minFilter":9987
		}
	],
	"buffers":[
		{
			"byteLength":1028116,
			"uri":"data:application/octet-stream;base64,"
		}
	]
}
