{
	"asset":{
		"generator":"Khronos glTF Blender I/O v3.6.28",
		"version":"2.0"
	},
	"scene":0,
	"scenes":[
		{
			"name":"Scene",
			"nodes":[
				0
			]
		}
	],
	"nodes":[
		{
			"mesh":0,
			"name":"139.001",
			"rotation":[
				0.7071068286895752,
				0,
				0,
				0.7071068286895752
			]
		}
	],
	"materials":[
		{
			"doubleSided":true,
			"name":"wood",
			"pbrMetallicRoughness":{}
		}
	],
	"meshes":[
		{
			"name":"139.001",
			"primitives":[
				{
					"attributes":{
						"POSITION":0,
						"NORMAL":1,
						"TEXCOORD_0":2
					},
					"indices":3,
					"material":0
				}
			]
		}
	],
	"accessors":[
		{
			"bufferView":0,
			"componentType":5126,
			"count":26178,
			"max":[
				0.5000039935112,
				12.985827445983887,
				14.34483814239502
			],
			"min":[
				-0.5000060200691223,
				-13.09867000579834,
				-14.908072471618652
			],
			"type":"VEC3"
		},
		{
			"bufferView":1,
			"componentType":5126,
			"count":26178,
			"type":"VEC3"
		},
		{
			"bufferView":2,
			"componentType":5126,
			"count":26178,
			"type":"VEC2"
		},
		{
			"bufferView":3,
			"componentType":5123,
			"count":49944,
			"type":"SCALAR"
		}
	],
	"bufferViews":[
		{
			"buffer":0,
			"byteLength":314136,
			"byteOffset":0,
			"target":34962
		},
		{
			"buffer":0,
			"byteLength":314136,
			"byteOffset":314136,
			"target":34962
		},
		{
			"buffer":0,
			"byteLength":209424,
			"byteOffset":628272,
			"target":34962
		},
		{
			"buffer":0,
			"byteLength":99888,
			"byteOffset":837696,
			"target":34963
		}
	],
	"buffers":[
		{
			"byteLength":937584,
			"uri":"data:application/octet-stream;base64,"
		}
	]
}
