<?xml version="1.0" encoding="UTF-8"?>
<svg id="_图层_1" data-name=" 图层 1" xmlns="http://www.w3.org/2000/svg" viewBox="0 0 433.82 154.18">
  <defs>
    <style>
      .cls-1 {
        fill: none;
        stroke: #000;
        stroke-miterlimit: 10;
        stroke-width: 4px;
      }
    </style>
  </defs>
  <path class="cls-1" d="m20.75,124.07s14.82-17.07,30.1-21.98,25.44-1.78,25.44-1.78c0,0,4.51,4,15.75,0s6.25-12,19.25-12,9,2,24,2-19,4,15,0,8-4,34-4-1,1,26,0c20.24-.75,17.63-.69,21.51-1.12,1.3-.15,3.32-.35,7.16-.65,15.33-1.22,14.66,6.22,22,0s-1.66,3.78,10.34-8.22-2-6,12-12-3-6,14-6-16,1,17,0,12,15,33-1,13-14,23-17,3,0,10-3,22-17,31-21"/>
  <path class="cls-1" d="m112.29,146.31c19-15,0,0,17-4s0,0,18,0,6-6,15-6,1,0,8-1,4-1,9-8,4-4,16-7,2,0,10.68-9.5,12.32-9.5,19.32-18.5c0,0-.99-6.25,6.51-7.12"/>
</svg>