<?xml version="1.0" encoding="UTF-8"?>
<svg id="_图层_1" data-name=" 图层 1" xmlns="http://www.w3.org/2000/svg" viewBox="0 0 433.82 154.18">
  <defs>
    <style>
      .cls-1 {
        fill: none;
        stroke: #000;
        stroke-miterlimit: 10;
        stroke-width: 4px;
      }
    </style>
  </defs>
  <path class="cls-1" d="m426.77,2.89s-15.89,11.49-22.49,15.19-5.82,9.85-12.41,9.85-15.12,3.28-15.12,3.28c0,0-17.06,18.47-22.1,20.52s-8.53,4.92-8.53,4.92c0,0-16.28-6.57-25.59-6.57s-24.81,2.05-24.81,2.05c0,0,.78.41-4.26,2.46s-7.75,2.46-9.3,5.75-3.1,10.67-8.53,13.54c-5.43,2.87-5.04,4.1-9.69,6.57s-5.43,2.46-13.96,2.05-58.15.2-58.15.2h-22.49l-40.32,7.18s-2.33-3.69-16.28-3.69-7.75-6.98-18.61,3.69-17.45,11.08-28.3,9.85-29.66-7.8-60.87,25.45"/>
  <path class="cls-1" d="m227.88,82.39s2.19-2.28-2.43,6.74c-4.62,9.02-6.02,7.73-9.58,11.34s-4.78,4.12-9.16,9.79c-4.38,5.67-6.57,9.02-6.57,9.02,0,0-17.03,2.83-19.22,3.86s-5.35,10.56-7.54,12.11-4.62,3.09-8.03,3.09-7.06.77-9.49,1.29-1.22,3.86-3.16,4.64-13.38,2.32-17.52,2.32-1.46-1.55-5.35-1.55-12.17.77-14.11,1.55-1.7-3.35-3.41-3.35-8.27,7.21-8.27,7.21"/>
</svg>