<?xml version="1.0" encoding="UTF-8"?>
<svg id="_图层_1" data-name="图层 1" xmlns="http://www.w3.org/2000/svg" viewBox="0 0 253 1126">
  <defs>
    <style>
      .cls-1 {
        fill: none;
        stroke: #000;
        stroke-linecap: round;
        stroke-linejoin: round;
        stroke-width: 2px;
      }
    </style>
  </defs>
  <path class="cls-1" d="m231.33,34.69c-27.5,41.04-19.58,46.37-49.25,85.82-15.41,20.3-24.91,13.54-35.57,36.72-8.21,18.14-2.59,20.16-2.59,40.03,0,22.9,14.11,25.49,6.05,46.94-9.79,26.21-29.52,15.12-43.92,39.02-21.74,36.43-11.09,42.48-27.07,81.79-3.31,8.06-2.3,7.06-1.87,15.7.72,17.28-5.62,26.35-7.63,32.69s-.72,26.21,10.66,41.18c7.34,9.65,22.18-4.75,30.24,4.32,12.24,13.68-5.18,29.38,8.78,41.33,18.58,15.84,30.67-.86,49.25,14.83,31.82,27.07,42.33,23.18,61.49,60.48,6.19,11.95-17.86,14.4-22.32,27.07-9.94,27.36-10.94,26.5-22.18,53.28-9.65,22.9-9.5,22.18-21.17,44.06-24.19,45.07-31.25,42.77-50.54,90.14-5.76,14.4,7.06,18.72,7.06,34.13,0,25.92-5.9,25.63-7.34,51.55-1.44,25.92,21.17,33.98,6.91,56.45-21.6,34.56-37.01,21.89-63.07,53.28-13.82,16.7-5.62,18.72-10.8,39.89-3.46,13.82-19.44,11.95-19.44,26.21,0,26.21,8.93,26.21,8.93,52.41"/>
</svg>