<?xml version="1.0" encoding="UTF-8"?>
<svg id="_图层_1" data-name="图层 1" xmlns="http://www.w3.org/2000/svg" viewBox="0 0 415 1110">
  <defs>
    <style>
      .cls-1 {
        stroke-linecap: round;
        stroke-linejoin: round;
      }

      .cls-1, .cls-2 {
        fill: none;
        stroke: #000;
        stroke-width: 2px;
      }

      .cls-2 {
        stroke-miterlimit: 10;
      }
    </style>
  </defs>
  <path class="cls-1" d="m84.59,23.28s-7.92,15.57-10.92,23.87-.73,6.68-1.98,11.67.29,10.05,2.5,11.23,5.5,2.94,3.74,6.24-5.67,2.67-7.35,13.78c-1.68,11.1.3,20.64-2.05,25.05s-10.71,4.18-8.59,8.15,4.26,7.93,10.86,11.45,3.08,10.13,3.6,11.82,2.57,8.44,5.8,12.99c3.23,4.55-10.79,6.97.22,12.84,11.01,5.87,16.51,8.81,20.26,15.04s2.2,1.17,4.7,12.4c2.5,11.23,1.84,15.12,3.82,24.66,1.98,9.54,3.96,19.08,3.3,22.97s-7.85,1.47-2.64,15.56c5.21,14.09-4.11,7.71,7.85,19.74,11.96,12.04,9.69,13.65,14.61,17.69,4.92,4.04,10.35,9.76,13.43,19.89s-3.01,8.29.15,15.63c3.16,7.34,6.46,9.1,3.52,14.6s-1.98,11.67-8.07,9.83c0,0,6.61,3.52,4.26,7.93s-1.25,4.99-2.64,15.56.07,18.42,1.69,20.7,3.23,4.55,4.26,7.93-6.24,3.74,5.36,8.51,13.21,7.04,17.54,12.18c4.33,5.14,7.71,4.11,11.52,7.56,3.82,3.45,1.4,10.64,7.27,20.84,5.87,10.2,4.33,5.14,6.83,16.37,2.5,11.23,2.06,6.75,5.73,15.78s3.82,3.45,7.93,16.95c4.11,13.5,17.69,27.81,12.41,37.72-5.28,9.91-15.78,26.94-10.57,41.03,5.21,14.09,14.53,20.48,11.52,28.77-3.01,8.29-7.71,17.1-9.17,30.46-1.47,13.36,9.47,22.02,2.35,38.02s-15.19,25.83-16.95,29.14-3.64,8.3-5.12,13c-1.48,4.69-6.62,9.02-6.25,16.29s3.96,19.08,7.71,25.32,8.81,4.7,9.76,10.86c.95,6.16-2.93,26.71,1.91,33.54s9.39,3.6,14.24,10.42c4.84,6.83-1.54,16.15,1.03,24.59,2.57,8.44,6.61,3.52,6.9,13.58.29,10.05-6.24,24.95-9.17,30.46-2.94,5.5,2.2,22.38-2.49,31.19-4.7,8.81-16.44,52.04-9.32,78.46,7.12,26.42-4.99,41.17,18.64,55.19,23.63,14.02,31.42,22.41,45.36,29.85"/>
  <path class="cls-1" d="m392,626s1,6-10,6-13.9-2-14.45-6,4.45-6-3.55-6-11-3-17-3-5.18,2-10.09,0-7.91-7-11.91-16-9-18-17-18-21-19-32-19-5-9-7-12-5,5-17-14-17-22-21-32-1-8-10-16-7-11-13-12-11.43-3.95-11.43-3.95"/>
  <path class="cls-1" d="m52.32,331s-5.23-28.87-4.18-31.58,0-6.32,5.75-12.63,10.46-12.63,12.03-16.24,6.28-3.61,6.28-9.92-.52-10.83,3.66-10.83,8.37-3.61,14.12-3.61,11.51-8.12,13.07-8.12,5.54-12.07,5.54-12.07"/>
  <path class="cls-2" d="m200,718.98s-17.37,4.02-28.22,20.02-10.84,25-10.84,39,0,24-5.42,37c-5.42,13-14.91,11-14.91,34s9.49,18-8.13,31-28.46,24-23.04,38"/>
  <path class="cls-2" d="m69.5,111.74s5.5,2.26,20.5,17.26,20,14,21,27,7,23,15,30-2-6,8,7,13,10,13,19"/>
</svg>