<?xml version="1.0" encoding="utf-8"?>
<!-- Generator: Adobe Illustrator 28.0.0, SVG Export Plug-In . SVG Version: 6.00 Build 0)  -->
<svg version="1.1" id="_图层_1" xmlns="http://www.w3.org/2000/svg" xmlns:xlink="http://www.w3.org/1999/xlink" x="0px" y="0px"
	 viewBox="0 0 271.9 1118" style="enable-background:new 0 0 271.9 1118;" xml:space="preserve">
<style type="text/css">
	.st0{fill:none;stroke:#000000;stroke-width:2;stroke-linecap:round;stroke-linejoin:round;}
</style>
<path class="st0" d="M252.6,8.5c0,0-11.8,13.8-17.7,21.7s-27.6,29.6-35.5,35.5c-7.9,5.9-19.7,23.6-25.6,29.6s-9.9,9.9-13.8,15.8
	s-15.8,25.6-17.7,33.5s-2,23.6,0,29.6c0,0,4.6,12.5,8.6,20.5s0,25-4,29s-10,9-22,12s-19,11-22,15s-18,30-22,37s-17,38-19,42
	s-2,10.8,0,13.9s7,9.1,7,15.1s-2,12-5,16c-3,4-8,10-9,13s0,13,1,17s11,28,13,31s7,5,15,3s19-7,24-3s6,13,4,19s-6,20-1,26s14,11,23,9
	s26-6,34,0s19,18,23,26s9,32,13,39s9,16,9,18s-1,4-5,5s-6,6-9,16s-1,20-3,28s-2,14-6,22s-7,23-9,30s-7,22-14,31s-24,36-29,43
	s-12,21-16,30s-6,13-10,18s-8,11-8,22s4,16,9,23s14,15,14,21s1,20-3,29s-13,15-18,23s-10,17-15,21s-6,8-17,13s-28,18-37,30
	s-16,25-18,35s-5,13,3,21s12,11,12,18s-2,23-4,28s-4,20-4,27"/>
</svg>
